<?xml version="1.0" standalone="no"?><svg xmlns="http://www.w3.org/2000/svg" viewBox="0 0 1440 320"><path fill="#0099ff" fill-opacity="1" d="M0,224L13.3,213.3C26.7,203,53,181,80,181.3C106.7,181,133,203,160,186.7C186.7,171,213,117,240,117.3C266.7,117,293,171,320,186.7C346.7,203,373,181,400,192C426.7,203,453,245,480,240C506.7,235,533,181,560,170.7C586.7,160,613,192,640,218.7C666.7,245,693,267,720,277.3C746.7,288,773,288,800,282.7C826.7,277,853,267,880,224C906.7,181,933,107,960,64C986.7,21,1013,11,1040,10.7C1066.7,11,1093,21,1120,74.7C1146.7,128,1173,224,1200,245.3C1226.7,267,1253,213,1280,181.3C1306.7,149,1333,139,1360,138.7C1386.7,139,1413,149,1427,154.7L1440,160L1440,0L1426.7,0C1413.3,0,1387,0,1360,0C1333.3,0,1307,0,1280,0C1253.3,0,1227,0,1200,0C1173.3,0,1147,0,1120,0C1093.3,0,1067,0,1040,0C1013.3,0,987,0,960,0C933.3,0,907,0,880,0C853.3,0,827,0,800,0C773.3,0,747,0,720,0C693.3,0,667,0,640,0C613.3,0,587,0,560,0C533.3,0,507,0,480,0C453.3,0,427,0,400,0C373.3,0,347,0,320,0C293.3,0,267,0,240,0C213.3,0,187,0,160,0C133.3,0,107,0,80,0C53.3,0,27,0,13,0L0,0Z"></path></svg>